<?xml version="1.0" encoding="UTF-8"?>
<svg id="katman_1" xmlns="http://www.w3.org/2000/svg" version="1.1" viewBox="0 0 457.41 137.52">
  <!-- Generator: Adobe Illustrator 29.8.2, SVG Export Plug-In . SVG Version: 2.1.1 Build 3)  -->
  <defs>
    <style>
      .st0 {
        fill: #85260f;
      }
    </style>
  </defs>
  <path class="st0" d="M410.33,24.82c3.14,0,5.72,3.16,5.72,6.29s-2.59,6.37-5.74,6.37h-42.56v-12.66h42.58ZM367.77,74.25v-12.64h49.43c3.16,0,5.74,3.16,5.74,6.32s-2.59,6.32-5.74,6.32h-49.43ZM439.58,47.94c6.73-4.28,10.94-11.23,10.94-20.25.19-16.4-13.6-25.3-29.9-25.23h-89.61v94.19h96.53c16.2,0,30.06-8.83,29.87-25.28,0-11.87-7.16-20.01-17.78-23.43h-.05Z"/>
  <polygon class="st0" points="274.76 2.3 274.76 96.65 311.5 96.65 311.5 29.81 282.91 26.29 311.5 15.89 311.5 2.3 274.76 2.3"/>
  <path class="st0" d="M199.58,29.75l12.9,27.84h-25.87l12.97-27.84ZM127.15,96.65h41.36l7.44-16.09h47.18l7.44,16.09h41.36L221.38,2.44h-43.68l-50.55,94.21Z"/>
  <path class="st0" d="M38.49,33.32c0-7.52,14.03-9.19,25.44-9.19,11.51.02,21.25,1.77,25.47,9.19h38.49C124.39,3.93,96.96.21,63.93,0,30.85,0,0,6.44,0,33.32c-.07,23.55,36.88,25.37,63.17,26.71,14.79.69,26.23,1.32,26.23,5.46,0,7.3-14.03,9.19-25.47,9.19s-21.23-1.89-25.44-9.19H0c3.49,29.25,30.92,33.25,63.93,33.32,33.1,0,63.96-6.39,63.96-33.32.07-23.55-36.89-25.37-63.17-26.71-14.79-.69-26.23-1.27-26.23-5.46"/>
  <g>
    <path class="st0" d="M6.36,130.08c.59,0,1.12-.07,1.58-.21.46-.14.86-.33,1.2-.58.34-.25.63-.55.85-.91s.4-.75.52-1.18c.08-.27.14-.57.17-.9.03-.33.05-.65.05-.96v-10.12h1.99v10.07c0,.38-.02.78-.06,1.19-.04.41-.11.8-.19,1.16-.15.6-.39,1.16-.69,1.67-.31.51-.71.95-1.21,1.33-.5.37-1.09.67-1.79.88-.69.21-1.51.32-2.44.32s-1.68-.1-2.35-.29c-.67-.19-1.25-.47-1.74-.81s-.88-.76-1.19-1.23c-.31-.47-.55-.99-.72-1.55-.12-.41-.21-.84-.26-1.3s-.08-.91-.08-1.35v-10.07h1.99v10.12c0,.36.03.74.08,1.13.05.39.14.74.25,1.05.28.79.76,1.41,1.42,1.87s1.54.68,2.63.68Z"/>
    <path class="st0" d="M16.69,131.54v-17.65h1.89v17.65h-1.89Z"/>
    <path class="st0" d="M26.95,131.85c-.6,0-1.14-.07-1.62-.19-.48-.13-.9-.31-1.26-.55-.36-.24-.67-.52-.92-.85-.25-.33-.45-.69-.6-1.08-.11-.29-.19-.61-.24-.96-.05-.35-.07-.73-.07-1.15v-7.11h1.89v7.09c0,.64.08,1.18.26,1.61.2.49.51.87.94,1.15.43.28.99.42,1.66.42.71,0,1.29-.15,1.72-.46.43-.31.75-.72.93-1.24.14-.4.21-.89.21-1.47v-7.09h1.89v7.12c0,.39-.02.75-.07,1.09s-.12.65-.21.93c-.15.4-.35.77-.6,1.1-.26.34-.57.63-.94.87s-.81.43-1.3.57c-.49.13-1.05.2-1.66.2Z"/>
    <path class="st0" d="M36.63,123.05c0,.32.07.58.2.78.13.2.32.37.54.49.23.13.49.23.79.31.3.08.61.15.92.22.44.1.85.21,1.24.32.39.12.75.29,1.08.53.33.24.6.55.8.96s.3.92.3,1.57c0,.58-.11,1.1-.34,1.55-.23.45-.55.83-.96,1.13-.41.3-.91.54-1.49.7-.58.16-1.21.24-1.9.24-.42,0-.81-.02-1.15-.07-.35-.04-.65-.1-.91-.17-.26-.07-.49-.14-.68-.21-.19-.07-.34-.14-.46-.21v-1.58c.48.2.95.35,1.42.46.47.11.99.17,1.56.17.45,0,.85-.04,1.21-.12.36-.08.67-.2.93-.36.26-.16.46-.36.6-.6.14-.24.21-.52.21-.83s-.06-.59-.19-.8-.3-.39-.51-.52c-.22-.14-.46-.25-.75-.34-.28-.09-.58-.17-.89-.24-.41-.09-.82-.19-1.24-.32s-.8-.29-1.14-.51c-.34-.22-.62-.52-.83-.9-.21-.38-.32-.86-.32-1.46s.11-1.14.33-1.58.52-.82.89-1.11.81-.51,1.3-.66,1.02-.22,1.57-.22c.64,0,1.24.06,1.79.18.55.12,1.05.28,1.49.46v1.61c-.48-.19-.96-.34-1.44-.46-.49-.12-.99-.18-1.5-.19-.44,0-.81.04-1.12.13s-.56.21-.76.37c-.2.16-.34.35-.43.56-.09.22-.14.45-.14.71Z"/>
    <path class="st0" d="M45.49,131.54v-17.65h1.89v17.65h-1.89Z"/>
    <path class="st0" d="M57.93,130.26h-.05c-.15.19-.35.39-.59.58s-.51.36-.82.51-.65.27-1.01.36c-.37.09-.76.13-1.17.13-.56,0-1.07-.08-1.54-.25-.47-.17-.87-.41-1.21-.73-.34-.32-.6-.71-.79-1.18-.19-.46-.28-.99-.28-1.57s.1-1.09.31-1.55.5-.84.87-1.16c.37-.32.82-.56,1.35-.73s1.1-.26,1.74-.26c.6,0,1.16.06,1.67.16s.97.22,1.37.37h.05v-.8c0-.32-.02-.6-.06-.84-.04-.24-.11-.46-.21-.65-.21-.39-.55-.71-1.01-.97-.46-.26-1.09-.38-1.88-.38-.59,0-1.14.05-1.65.16-.52.11-1.03.26-1.54.46v-1.58c.19-.1.42-.19.69-.27.26-.08.54-.16.83-.22.29-.06.6-.11.93-.14.32-.03.65-.05.98-.05,1.17,0,2.13.21,2.87.62.74.41,1.28.96,1.6,1.65.12.26.21.55.26.86.05.31.08.66.08,1.03v7.73h-1.58l-.21-1.28ZM57.83,126.46c-.35-.1-.76-.19-1.24-.28-.48-.09-1-.14-1.58-.15-.8,0-1.43.17-1.88.51s-.68.87-.68,1.57c0,.36.06.67.17.94.11.27.27.49.47.66.2.18.43.3.7.39.27.09.56.13.87.13.4,0,.78-.06,1.13-.18.35-.12.66-.26.93-.42s.5-.33.69-.49c.19-.16.33-.29.42-.38v-2.32Z"/>
    <path class="st0" d="M69.73,121.5h-.15c-.45,0-.89.04-1.32.12-.43.08-.83.21-1.21.37-.38.17-.72.37-1.02.62-.3.24-.56.53-.76.87v8.07h-1.89v-11.58h1.46l.37,1.84h.04c.19-.3.42-.58.69-.84s.58-.49.92-.68c.34-.19.71-.35,1.12-.46s.83-.16,1.28-.16c.08,0,.16,0,.25,0,.08,0,.16.01.23.02v1.82Z"/>
    <path class="st0" d="M78.52,130.26h-.05c-.15.19-.35.39-.59.58s-.51.36-.82.51-.65.27-1.01.36c-.37.09-.76.13-1.17.13-.56,0-1.07-.08-1.54-.25-.47-.17-.87-.41-1.21-.73-.34-.32-.6-.71-.79-1.18-.19-.46-.28-.99-.28-1.57s.1-1.09.31-1.55.5-.84.87-1.16c.37-.32.82-.56,1.35-.73s1.1-.26,1.74-.26c.6,0,1.16.06,1.67.16s.97.22,1.37.37h.05v-.8c0-.32-.02-.6-.06-.84-.04-.24-.11-.46-.21-.65-.21-.39-.55-.71-1.01-.97-.46-.26-1.09-.38-1.88-.38-.59,0-1.14.05-1.65.16-.52.11-1.03.26-1.54.46v-1.58c.19-.1.42-.19.69-.27.26-.08.54-.16.83-.22.29-.06.6-.11.93-.14.32-.03.65-.05.98-.05,1.17,0,2.13.21,2.87.62.74.41,1.28.96,1.6,1.65.12.26.21.55.26.86.05.31.08.66.08,1.03v7.73h-1.58l-.21-1.28ZM78.42,126.46c-.35-.1-.76-.19-1.24-.28-.48-.09-1-.14-1.58-.15-.8,0-1.43.17-1.88.51s-.68.87-.68,1.57c0,.36.06.67.17.94.11.27.27.49.47.66.2.18.43.3.7.39.27.09.56.13.87.13.4,0,.78-.06,1.13-.18.35-.12.66-.26.93-.42s.5-.33.69-.49c.19-.16.33-.29.42-.38v-2.32Z"/>
    <path class="st0" d="M90.31,121.5h-.15c-.45,0-.89.04-1.32.12-.43.08-.83.21-1.21.37-.38.17-.72.37-1.02.62-.3.24-.56.53-.76.87v8.07h-1.89v-11.58h1.46l.37,1.84h.04c.19-.3.42-.58.69-.84s.58-.49.92-.68c.34-.19.71-.35,1.12-.46s.83-.16,1.28-.16c.08,0,.16,0,.25,0,.08,0,.16.01.23.02v1.82Z"/>
    <path class="st0" d="M99.1,130.26h-.05c-.15.19-.35.39-.59.58s-.51.36-.82.51-.65.27-1.01.36c-.37.09-.76.13-1.17.13-.56,0-1.07-.08-1.54-.25-.47-.17-.87-.41-1.21-.73-.34-.32-.6-.71-.79-1.18-.19-.46-.28-.99-.28-1.57s.1-1.09.31-1.55.5-.84.87-1.16c.37-.32.82-.56,1.35-.73s1.1-.26,1.74-.26c.6,0,1.16.06,1.67.16s.97.22,1.37.37h.05v-.8c0-.32-.02-.6-.06-.84-.04-.24-.11-.46-.21-.65-.21-.39-.55-.71-1.01-.97-.46-.26-1.09-.38-1.88-.38-.59,0-1.14.05-1.65.16-.52.11-1.03.26-1.54.46v-1.58c.19-.1.42-.19.69-.27.26-.08.54-.16.83-.22.29-.06.6-.11.93-.14.32-.03.65-.05.98-.05,1.17,0,2.13.21,2.87.62.74.41,1.28.96,1.6,1.65.12.26.21.55.26.86.05.31.08.66.08,1.03v7.73h-1.58l-.21-1.28ZM99,126.46c-.35-.1-.76-.19-1.24-.28-.48-.09-1-.14-1.58-.15-.8,0-1.43.17-1.88.51s-.68.87-.68,1.57c0,.36.06.67.17.94.11.27.27.49.47.66.2.18.43.3.7.39.27.09.56.13.87.13.4,0,.78-.06,1.13-.18.35-.12.66-.26.93-.42s.5-.33.69-.49c.19-.16.33-.29.42-.38v-2.32Z"/>
    <path class="st0" d="M105.9,123.05c0,.32.07.58.2.78.13.2.32.37.54.49.23.13.49.23.79.31.3.08.61.15.92.22.44.1.85.21,1.24.32.39.12.75.29,1.08.53.33.24.6.55.8.96s.3.92.3,1.57c0,.58-.11,1.1-.34,1.55-.23.45-.55.83-.96,1.13-.41.3-.91.54-1.49.7-.58.16-1.21.24-1.9.24-.42,0-.81-.02-1.15-.07-.35-.04-.65-.1-.91-.17-.26-.07-.49-.14-.68-.21-.19-.07-.34-.14-.46-.21v-1.58c.48.2.95.35,1.42.46.47.11.99.17,1.56.17.45,0,.85-.04,1.21-.12.36-.08.67-.2.93-.36.26-.16.46-.36.6-.6.14-.24.21-.52.21-.83s-.06-.59-.19-.8-.3-.39-.51-.52c-.22-.14-.46-.25-.75-.34-.28-.09-.58-.17-.89-.24-.41-.09-.82-.19-1.24-.32s-.8-.29-1.14-.51c-.34-.22-.62-.52-.83-.9-.21-.38-.32-.86-.32-1.46s.11-1.14.33-1.58.52-.82.89-1.11.81-.51,1.3-.66,1.02-.22,1.57-.22c.64,0,1.24.06,1.79.18.55.12,1.05.28,1.49.46v1.61c-.48-.19-.96-.34-1.44-.46-.49-.12-.99-.18-1.5-.19-.44,0-.81.04-1.12.13s-.56.21-.76.37c-.2.16-.34.35-.43.56-.09.22-.14.45-.14.71Z"/>
    <path class="st0" d="M114.76,131.54v-11.58h1.89v11.58h-1.89Z"/>
  </g>
  <g>
    <path class="st0" d="M126.65,119.55c0,.48.1.87.29,1.19s.46.57.78.77c.33.2.71.37,1.14.5s.89.25,1.36.37c.63.15,1.25.32,1.87.51.61.19,1.16.45,1.63.77.48.33.86.76,1.16,1.29.3.53.44,1.21.44,2.03s-.16,1.57-.48,2.19-.76,1.12-1.33,1.51-1.23.69-2.01.88c-.77.19-1.62.29-2.53.29-.42,0-.86-.03-1.3-.08-.44-.05-.86-.12-1.27-.21-.4-.09-.77-.19-1.09-.3s-.58-.23-.77-.34v-1.82c.29.15.62.28.99.4.37.12.74.22,1.13.31.39.09.78.15,1.18.2s.77.07,1.12.07c.57,0,1.11-.05,1.63-.15.52-.1.97-.26,1.36-.49.39-.23.7-.54.93-.93s.34-.89.34-1.48c0-.49-.1-.89-.3-1.21-.2-.32-.47-.58-.8-.79-.33-.21-.72-.38-1.15-.51s-.89-.25-1.37-.37c-.63-.15-1.25-.31-1.86-.49s-1.15-.44-1.62-.76c-.48-.32-.86-.74-1.15-1.26-.29-.51-.43-1.17-.43-1.96s.15-1.54.45-2.14.71-1.09,1.23-1.48c.52-.39,1.11-.68,1.79-.86.67-.19,1.39-.28,2.16-.28.87,0,1.68.08,2.43.25.75.17,1.44.38,2.07.65v1.84c-.67-.28-1.37-.52-2.09-.69-.72-.18-1.49-.27-2.31-.28-.62,0-1.15.07-1.61.2-.46.13-.83.33-1.13.57s-.52.55-.67.9c-.15.35-.22.75-.22,1.18Z"/>
    <path class="st0" d="M143.19,131.85c-.6,0-1.14-.07-1.62-.19-.48-.13-.9-.31-1.26-.55-.36-.24-.67-.52-.92-.85-.25-.33-.45-.69-.6-1.08-.11-.29-.19-.61-.24-.96-.05-.35-.07-.73-.07-1.15v-7.11h1.89v7.09c0,.64.08,1.18.26,1.61.2.49.51.87.94,1.15.43.28.99.42,1.66.42.71,0,1.29-.15,1.72-.46.43-.31.75-.72.93-1.24.14-.4.21-.89.21-1.47v-7.09h1.89v7.12c0,.39-.02.75-.07,1.09s-.12.65-.21.93c-.15.4-.35.77-.6,1.1-.26.34-.57.63-.94.87s-.81.43-1.3.57c-.49.13-1.05.2-1.66.2Z"/>
    <path class="st0" d="M157.86,121.5h-.15c-.45,0-.89.04-1.32.12-.43.08-.83.21-1.21.37-.38.17-.72.37-1.02.62-.3.24-.56.53-.76.87v8.07h-1.89v-11.58h1.46l.37,1.84h.04c.19-.3.42-.58.69-.84s.58-.49.92-.68c.34-.19.71-.35,1.12-.46s.83-.16,1.28-.16c.08,0,.16,0,.25,0,.08,0,.16.01.23.02v1.82Z"/>
    <path class="st0" d="M159.94,117.27v-2.11h1.89v2.11h-1.89ZM159.99,131.54v-11.58h1.89v11.58h-1.89Z"/>
    <path class="st0" d="M164.2,119.97h1.89l3.6,9.08h.07l3.69-9.08h1.89l-7.17,17.25h-1.88l2.47-5.9-4.57-11.35Z"/>
    <path class="st0" d="M183.13,130.2c.63,0,1.2-.05,1.71-.15.52-.1,1.03-.25,1.54-.43v1.57c-.41.2-.93.36-1.54.48-.61.12-1.26.18-1.96.18-.83,0-1.61-.11-2.33-.32s-1.36-.55-1.89-1.02c-.53-.47-.95-1.09-1.25-1.85s-.45-1.68-.45-2.75.15-1.97.44-2.75c.29-.78.68-1.42,1.17-1.94.49-.52,1.05-.91,1.68-1.17s1.29-.39,1.98-.39c.65,0,1.25.11,1.82.32s1.05.55,1.47,1.02c.41.46.74,1.06.98,1.79.24.73.36,1.61.36,2.63v.25c0,.07,0,.23-.01.47h-8c0,.74.11,1.37.33,1.88s.53.93.91,1.26.84.55,1.36.7c.52.15,1.08.22,1.68.22ZM182.13,121.28c-.44,0-.84.09-1.22.26-.37.17-.7.4-.98.7-.28.29-.51.64-.68,1.03-.17.39-.28.81-.32,1.26h5.92c0-.46-.06-.88-.18-1.27-.12-.39-.29-.74-.52-1.03-.23-.29-.51-.52-.85-.69-.34-.17-.73-.25-1.17-.25Z"/>
    <path class="st0" d="M195.29,131.54v-16.31h1.99v16.31h-1.99ZM195.39,113.9v-2.11h1.99v2.11h-1.99Z"/>
    <path class="st0" d="M208.51,128.23c0,.51-.09.97-.28,1.39s-.44.77-.78,1.07c-.33.3-.74.54-1.21.73-.47.19-1,.31-1.57.38l-.35,1.29c.34.05.67.12.99.22.32.1.59.23.82.4.23.16.4.36.53.59.12.23.19.5.19.8,0,.42-.11.79-.33,1.09-.22.3-.52.56-.89.76s-.77.35-1.18.44-.84.14-1.28.14c-.33,0-.64-.02-.93-.07-.29-.04-.52-.1-.69-.16v-1.38c.1.03.21.06.33.08.13.02.26.05.4.07.14.02.27.03.39.04.12,0,.23.01.33.01.24,0,.46-.01.69-.04.22-.03.42-.08.6-.16.18-.08.32-.18.43-.3.11-.13.16-.29.16-.48,0-.17-.06-.32-.17-.43-.11-.12-.27-.21-.48-.29-.21-.07-.46-.13-.76-.16-.3-.04-.63-.06-.99-.08l.71-2.33c-.68-.04-1.24-.12-1.67-.25-.43-.13-.76-.26-1-.4v-1.58c.5.2.99.36,1.47.47s1.01.16,1.57.16c.46,0,.87-.04,1.23-.12.37-.08.68-.2.94-.36.26-.16.47-.36.61-.6.14-.24.21-.52.21-.83s-.07-.59-.19-.8c-.13-.21-.3-.39-.52-.52-.22-.14-.47-.25-.76-.34-.29-.09-.59-.17-.91-.24-.41-.09-.83-.19-1.26-.32s-.81-.29-1.16-.51-.63-.52-.85-.9c-.22-.38-.32-.86-.32-1.46s.12-1.14.35-1.58c.24-.45.55-.82.95-1.11s.85-.51,1.35-.66c.5-.15,1.02-.22,1.58-.22.64,0,1.24.06,1.79.18.55.12,1.05.28,1.49.46v1.61c-.49-.19-.98-.34-1.48-.46-.5-.12-1.01-.18-1.54-.19-.45,0-.83.04-1.15.13-.32.09-.58.21-.78.37-.2.16-.35.35-.45.56-.09.22-.14.45-.14.71,0,.32.07.58.21.78s.32.37.55.49c.23.13.5.23.8.31.3.08.62.15.94.22.44.1.87.21,1.26.32.4.12.76.29,1.1.53.34.24.61.55.81.96.21.4.31.92.31,1.57Z"/>
  </g>
  <g>
    <path class="st0" d="M213.77,131.54l6.64-16.31h1.72l6.64,16.31h-2.16l-1.95-4.91h-6.82l-1.95,4.91h-2.13ZM221.26,117.77c-.73,2.03-1.42,3.87-2.08,5.53l-.61,1.54h5.41l-.62-1.53c-.67-1.69-1.35-3.53-2.04-5.54h-.05Z"/>
    <path class="st0" d="M230.36,125.9c0-.8.08-1.52.24-2.14.16-.62.37-1.16.63-1.63.26-.46.56-.85.91-1.16.35-.31.71-.57,1.08-.76.37-.2.75-.34,1.14-.42.39-.08.75-.13,1.09-.13.71,0,1.32.12,1.84.35.52.24.99.58,1.4,1.04h.04v-7.15h1.89v17.65h-1.43l-.39-1.29h-.05c-.15.19-.32.38-.51.57-.19.19-.42.36-.69.52-.26.15-.57.28-.91.37-.35.09-.75.14-1.2.14-.63,0-1.26-.11-1.86-.32-.61-.21-1.15-.56-1.63-1.04-.48-.48-.86-1.09-1.15-1.84-.29-.75-.44-1.67-.44-2.75ZM232.33,125.88c0,.67.08,1.27.23,1.81.15.54.37,1,.65,1.38.28.38.63.67,1.05.87.41.2.89.3,1.43.3.4,0,.76-.05,1.08-.16.33-.11.62-.24.87-.4.25-.16.47-.33.66-.52.18-.18.33-.35.43-.51v-6.06c-.39-.4-.84-.72-1.35-.96-.51-.24-1.06-.36-1.66-.36-.36,0-.73.07-1.13.2-.39.13-.76.38-1.1.73-.34.35-.62.82-.83,1.41-.22.59-.33,1.34-.33,2.26Z"/>
    <path class="st0" d="M251.18,130.26h-.05c-.15.19-.35.39-.58.58s-.51.36-.82.51-.65.27-1.01.36c-.36.09-.76.13-1.17.13-.56,0-1.07-.08-1.54-.25-.47-.17-.87-.41-1.21-.73-.34-.32-.6-.71-.79-1.18-.19-.46-.28-.99-.28-1.57s.1-1.09.31-1.55.5-.84.87-1.16c.37-.32.82-.56,1.35-.73s1.1-.26,1.74-.26c.6,0,1.16.06,1.67.16.51.1.97.22,1.37.37h.05v-.8c0-.32-.02-.6-.06-.84-.04-.24-.11-.46-.21-.65-.21-.39-.55-.71-1.01-.97s-1.09-.38-1.88-.38c-.58,0-1.14.05-1.65.16-.52.11-1.03.26-1.54.46v-1.58c.19-.1.42-.19.69-.27.26-.08.54-.16.83-.22s.6-.11.93-.14c.32-.03.65-.05.97-.05,1.17,0,2.13.21,2.87.62.74.41,1.28.96,1.6,1.65.12.26.21.55.26.86.05.31.08.66.08,1.03v7.73h-1.58l-.21-1.28ZM251.08,126.46c-.35-.1-.76-.19-1.24-.28-.48-.09-1-.14-1.58-.15-.8,0-1.43.17-1.88.51s-.68.87-.68,1.57c0,.36.06.67.17.94.11.27.27.49.47.66.2.18.43.3.7.39.27.09.56.13.87.13.4,0,.78-.06,1.13-.18.35-.12.66-.26.93-.42.27-.16.5-.33.69-.49.19-.16.33-.29.42-.38v-2.32Z"/>
    <path class="st0" d="M266.08,131.54h-1.89v-7.45c0-.5-.05-.93-.16-1.29s-.27-.64-.48-.87c-.21-.23-.46-.39-.74-.5s-.61-.16-.97-.16c-.67,0-1.29.18-1.84.54-.55.36-1.05.86-1.49,1.49v8.23h-1.89v-11.58h1.46l.37,1.61h.04c.21-.27.44-.52.69-.75.25-.23.52-.43.83-.61.3-.17.64-.31,1.01-.41.37-.1.76-.15,1.19-.15.86,0,1.58.21,2.15.62.57.41,1.01.98,1.32,1.69h.05c.51-.72,1.1-1.29,1.76-1.7.66-.41,1.43-.62,2.31-.62.41,0,.84.06,1.29.17.46.11.88.32,1.26.63.38.3.7.72.95,1.26.25.54.38,1.23.38,2.07v7.75h-1.89v-7.45c0-.5-.05-.93-.16-1.29s-.27-.64-.48-.87c-.21-.23-.46-.39-.74-.5s-.61-.16-.97-.16c-.67,0-1.29.18-1.85.54-.56.36-1.05.86-1.49,1.49v8.23Z"/>
    <path class="st0" d="M277.43,131.54v-17.65h1.89v17.65h-1.89Z"/>
    <path class="st0" d="M289.87,130.26h-.05c-.15.19-.35.39-.58.58s-.51.36-.82.51-.65.27-1.01.36c-.36.09-.76.13-1.17.13-.56,0-1.07-.08-1.54-.25-.47-.17-.87-.41-1.21-.73-.34-.32-.6-.71-.79-1.18-.19-.46-.28-.99-.28-1.57s.1-1.09.31-1.55.5-.84.87-1.16c.37-.32.82-.56,1.35-.73s1.1-.26,1.74-.26c.6,0,1.16.06,1.67.16.51.1.97.22,1.37.37h.05v-.8c0-.32-.02-.6-.06-.84-.04-.24-.11-.46-.21-.65-.21-.39-.55-.71-1.01-.97s-1.09-.38-1.88-.38c-.58,0-1.14.05-1.65.16-.52.11-1.03.26-1.54.46v-1.58c.19-.1.42-.19.69-.27.26-.08.54-.16.83-.22s.6-.11.93-.14c.32-.03.65-.05.97-.05,1.17,0,2.13.21,2.87.62.74.41,1.28.96,1.6,1.65.12.26.21.55.26.86.05.31.08.66.08,1.03v7.73h-1.58l-.21-1.28ZM289.78,126.46c-.35-.1-.76-.19-1.24-.28-.48-.09-1-.14-1.58-.15-.8,0-1.43.17-1.88.51s-.68.87-.68,1.57c0,.36.06.67.17.94.11.27.27.49.47.66.2.18.43.3.7.39.27.09.56.13.87.13.4,0,.78-.06,1.13-.18.35-.12.66-.26.93-.42.27-.16.5-.33.69-.49.19-.16.33-.29.42-.38v-2.32Z"/>
    <path class="st0" d="M301.67,121.5h-.15c-.45,0-.89.04-1.32.12-.43.08-.84.21-1.21.37-.38.17-.72.37-1.02.62s-.56.53-.76.87v8.07h-1.89v-11.58h1.46l.37,1.84h.04c.19-.3.42-.58.69-.84s.58-.49.92-.68.72-.35,1.12-.46.83-.16,1.28-.16c.08,0,.16,0,.25,0,.09,0,.16.01.23.02v1.82Z"/>
    <path class="st0" d="M303.81,131.54v-11.58h1.89v11.58h-1.89Z"/>
    <path class="st0" d="M322.64,123.11c.5.07.96.21,1.36.4s.75.44,1.04.75c.29.3.51.67.66,1.09s.23.9.23,1.43c0,.38-.06.78-.17,1.2-.11.42-.3.82-.56,1.22-.26.39-.6.76-1.03,1.09s-.95.61-1.57.82c-.48.16-1.02.28-1.6.34s-1.29.1-2.11.1h-4.17v-16.31h4.02c.37,0,.7,0,1.01.02.3.01.58.03.83.05.25.02.49.05.7.09s.42.08.61.13c.51.14.97.33,1.38.57s.76.53,1.05.86c.29.33.51.71.67,1.13.16.42.24.88.24,1.38,0,.4-.05.78-.14,1.15-.09.36-.24.7-.45,1.01s-.47.58-.8.83c-.33.24-.73.45-1.2.61v.05ZM319.72,122.29c.39,0,.73-.02,1.01-.05.28-.04.54-.09.77-.16.61-.2,1.06-.52,1.34-.95.28-.43.42-.94.42-1.52s-.15-1.09-.44-1.47c-.29-.38-.75-.67-1.38-.85-.31-.09-.67-.15-1.07-.19-.41-.04-.89-.05-1.44-.05h-2.23v5.26h3.02ZM316.7,124.09v5.67h2.4c.57,0,1.1-.03,1.58-.08.49-.05.9-.14,1.24-.25.37-.12.69-.28.95-.47.26-.19.47-.4.63-.63.16-.23.27-.48.34-.74.07-.26.1-.52.1-.79,0-.31-.04-.6-.11-.87-.07-.27-.19-.52-.36-.73s-.39-.4-.66-.57-.61-.29-1.02-.38c-.24-.06-.52-.1-.83-.12-.31-.02-.7-.04-1.16-.04h-3.11Z"/>
    <path class="st0" d="M329.35,117.27v-2.11h1.89v2.11h-1.89ZM329.4,131.54v-11.58h1.89v11.58h-1.89Z"/>
    <path class="st0" d="M341.42,121.5h-.15c-.45,0-.89.04-1.32.12-.43.08-.84.21-1.21.37-.38.17-.72.37-1.02.62s-.56.53-.76.87v8.07h-1.89v-11.58h1.46l.37,1.84h.04c.19-.3.42-.58.69-.84s.58-.49.92-.68.72-.35,1.12-.46.83-.16,1.28-.16c.08,0,.16,0,.25,0,.09,0,.16.01.23.02v1.82Z"/>
    <path class="st0" d="M343.55,131.54v-17.65h1.89v17.65h-1.89Z"/>
    <path class="st0" d="M349.29,117.27v-2.11h1.89v2.11h-1.89ZM349.34,131.54v-11.58h1.89v11.58h-1.89Z"/>
    <path class="st0" d="M359.49,119.66c.5,0,.94.07,1.32.2.37.12.69.27.96.46.27.18.48.36.64.54.16.18.27.32.32.43h.05l.39-1.32h1.43v12.26c0,.89-.15,1.67-.44,2.33-.29.66-.7,1.21-1.23,1.65-.53.44-1.16.76-1.91.98-.74.22-1.57.32-2.47.32-.76,0-1.45-.07-2.05-.2-.6-.13-1.07-.3-1.41-.48v-1.6c.28.11.54.21.8.29.26.08.53.14.8.19.28.05.56.09.85.12.29.02.61.04.96.04,1.36,0,2.4-.32,3.12-.95.72-.63,1.08-1.6,1.08-2.9v-1.55h-.04c-.41.46-.9.8-1.44,1.03-.55.23-1.18.35-1.88.35-.33,0-.67-.04-1.05-.11-.37-.07-.75-.2-1.12-.37-.37-.18-.73-.41-1.07-.7-.34-.29-.64-.65-.9-1.08-.26-.44-.47-.95-.63-1.54-.16-.59-.24-1.28-.24-2.06,0-1.08.15-2.02.44-2.81.29-.79.68-1.45,1.16-1.97.48-.52,1.03-.91,1.65-1.16.62-.26,1.26-.38,1.91-.38ZM359.77,116.22c.6,0,1.08-.17,1.43-.51.35-.34.59-.88.7-1.62h1.6c-.03.52-.14,1-.31,1.44-.18.44-.42.82-.73,1.14s-.69.57-1.15.76c-.45.18-.97.27-1.54.27s-1.09-.09-1.54-.27c-.45-.18-.83-.43-1.15-.76-.31-.32-.56-.7-.73-1.14-.18-.44-.28-.92-.31-1.44h1.6c.11.74.35,1.28.7,1.62.35.34.83.51,1.43.51ZM356.31,125.83c0,.91.11,1.65.33,2.23.22.58.5,1.03.84,1.35.34.32.7.54,1.1.66.4.12.78.18,1.13.18.58,0,1.13-.12,1.64-.35s.96-.56,1.35-.96v-6.06c-.11-.15-.25-.31-.44-.5-.19-.19-.4-.36-.65-.52s-.53-.29-.85-.4c-.32-.11-.66-.16-1.04-.16-.56,0-1.05.11-1.48.34-.43.22-.78.53-1.07.93-.29.4-.51.88-.65,1.43-.15.56-.22,1.17-.22,1.85Z"/>
    <path class="st0" d="M368.33,117.27v-2.11h1.89v2.11h-1.89ZM368.38,131.54v-11.58h1.89v11.58h-1.89Z"/>
    <path class="st0" d="M392.5,123.32c0,.95-.12,1.85-.35,2.68s-.59,1.59-1.07,2.26c-.47.67-1.07,1.25-1.78,1.74-.71.49-1.54.87-2.49,1.13-.54.15-1.13.26-1.77.32s-1.32.09-2.06.09h-3.69v-16.31h3.73c.74,0,1.43.03,2.06.09.63.06,1.22.17,1.77.32.95.27,1.78.64,2.49,1.12.71.48,1.3,1.05,1.77,1.7.47.65.82,1.39,1.05,2.21s.35,1.7.35,2.64ZM390.52,123.32c0-1.57-.35-2.84-1.04-3.81-.69-.98-1.68-1.67-2.98-2.07-.49-.15-1.05-.26-1.66-.32s-1.3-.08-2.06-.08h-1.52v12.72h1.52c.77,0,1.45-.03,2.06-.09s1.16-.16,1.66-.32c1.29-.41,2.28-1.12,2.98-2.13.69-1.02,1.04-2.32,1.04-3.9Z"/>
    <path class="st0" d="M401.29,130.2c.63,0,1.2-.05,1.71-.15s1.03-.25,1.54-.43v1.57c-.41.2-.93.36-1.54.48-.61.12-1.26.18-1.96.18-.83,0-1.61-.11-2.33-.32-.73-.21-1.36-.55-1.89-1.02-.53-.47-.95-1.09-1.25-1.85-.3-.76-.45-1.68-.45-2.75s.15-1.97.44-2.75c.29-.78.68-1.42,1.17-1.94.49-.52,1.05-.91,1.68-1.17s1.29-.39,1.98-.39c.65,0,1.25.11,1.82.32.56.22,1.05.55,1.47,1.02s.74,1.06.98,1.79c.24.73.36,1.61.36,2.63v.25c0,.07,0,.23-.01.47h-7.99c0,.74.11,1.37.33,1.88.22.52.53.93.91,1.26s.84.55,1.36.7,1.08.22,1.68.22ZM400.29,121.28c-.44,0-.84.09-1.21.26-.38.17-.7.4-.98.7-.28.29-.51.64-.68,1.03-.17.39-.28.81-.32,1.26h5.92c0-.46-.06-.88-.18-1.27-.12-.39-.29-.74-.52-1.03s-.51-.52-.85-.69c-.34-.17-.73-.25-1.17-.25Z"/>
    <path class="st0" d="M414.56,121.5h-.15c-.45,0-.89.04-1.32.12-.43.08-.84.21-1.21.37-.38.17-.72.37-1.02.62s-.56.53-.76.87v8.07h-1.89v-11.58h1.46l.37,1.84h.04c.19-.3.42-.58.69-.84s.58-.49.92-.68.72-.35,1.12-.46.83-.16,1.28-.16c.08,0,.16,0,.25,0,.09,0,.16.01.23.02v1.82Z"/>
    <path class="st0" d="M418.4,121.58h.04c.21-.27.44-.52.7-.75.26-.23.54-.43.86-.61.32-.17.66-.31,1.04-.41.38-.1.79-.15,1.24-.15.53,0,1.02.07,1.49.22s.87.38,1.21.71c.34.33.61.75.81,1.27.2.52.3,1.17.3,1.93v7.75h-1.89v-7.45c0-1-.19-1.72-.58-2.16-.39-.44-.95-.66-1.69-.66-.65,0-1.28.18-1.89.54-.61.36-1.13.86-1.57,1.49v8.23h-1.89v-11.58h1.46l.37,1.61Z"/>
    <path class="st0" d="M435.23,130.2c.63,0,1.2-.05,1.71-.15s1.03-.25,1.54-.43v1.57c-.41.2-.93.36-1.54.48-.61.12-1.26.18-1.96.18-.83,0-1.61-.11-2.33-.32-.73-.21-1.36-.55-1.89-1.02-.53-.47-.95-1.09-1.25-1.85-.3-.76-.45-1.68-.45-2.75s.15-1.97.44-2.75c.29-.78.68-1.42,1.17-1.94.49-.52,1.05-.91,1.68-1.17s1.29-.39,1.98-.39c.65,0,1.25.11,1.82.32.56.22,1.05.55,1.47,1.02s.74,1.06.98,1.79c.24.73.36,1.61.36,2.63v.25c0,.07,0,.23-.01.47h-7.99c0,.74.11,1.37.33,1.88.22.52.53.93.91,1.26s.84.55,1.36.7,1.08.22,1.68.22ZM434.23,121.28c-.44,0-.84.09-1.21.26-.38.17-.7.4-.98.7-.28.29-.51.64-.68,1.03-.17.39-.28.81-.32,1.26h5.92c0-.46-.06-.88-.18-1.27-.12-.39-.29-.74-.52-1.03s-.51-.52-.85-.69c-.34-.17-.73-.25-1.17-.25Z"/>
    <path class="st0" d="M446.64,119.66c.5,0,.94.07,1.32.2.37.12.69.27.96.46.27.18.48.36.64.54.16.18.27.32.32.43h.05l.39-1.32h1.43v12.26c0,.89-.15,1.67-.44,2.33-.29.66-.7,1.21-1.23,1.65-.53.44-1.16.76-1.91.98-.74.22-1.57.32-2.47.32-.76,0-1.45-.07-2.05-.2-.6-.13-1.07-.3-1.41-.48v-1.6c.28.11.54.21.8.29.26.08.53.14.8.19.28.05.56.09.85.12.29.02.61.04.96.04,1.36,0,2.4-.32,3.12-.95.72-.63,1.08-1.6,1.08-2.9v-1.55h-.04c-.41.46-.9.8-1.44,1.03-.55.23-1.18.35-1.88.35-.33,0-.67-.04-1.05-.11-.37-.07-.75-.2-1.12-.37-.37-.18-.73-.41-1.07-.7-.34-.29-.64-.65-.9-1.08-.26-.44-.47-.95-.63-1.54-.16-.59-.24-1.28-.24-2.06,0-1.08.15-2.02.44-2.81.29-.79.68-1.45,1.16-1.97.48-.52,1.03-.91,1.65-1.16.62-.26,1.26-.38,1.91-.38ZM446.92,116.22c.6,0,1.08-.17,1.43-.51.35-.34.59-.88.7-1.62h1.6c-.03.52-.14,1-.31,1.44-.18.44-.42.82-.73,1.14s-.69.57-1.15.76c-.45.18-.97.27-1.54.27s-1.09-.09-1.54-.27c-.45-.18-.83-.43-1.15-.76-.31-.32-.56-.7-.73-1.14-.18-.44-.28-.92-.31-1.44h1.6c.11.74.35,1.28.7,1.62.35.34.83.51,1.43.51ZM443.46,125.83c0,.91.11,1.65.33,2.23.22.58.5,1.03.84,1.35.34.32.7.54,1.1.66.4.12.78.18,1.13.18.58,0,1.13-.12,1.64-.35s.96-.56,1.35-.96v-6.06c-.11-.15-.25-.31-.44-.5-.19-.19-.4-.36-.65-.52s-.53-.29-.85-.4c-.32-.11-.66-.16-1.04-.16-.56,0-1.05.11-1.48.34-.43.22-.78.53-1.07.93-.29.4-.51.88-.65,1.43-.15.56-.22,1.17-.22,1.85Z"/>
    <path class="st0" d="M455.47,117.27v-2.11h1.89v2.11h-1.89ZM455.52,131.54v-11.58h1.89v11.58h-1.89Z"/>
  </g>
</svg>